<mxfile host="65bd71144e">
    <diagram id="Z6RD4AJKUsrjlrnRo9PD" name="Page-1">
        <mxGraphModel dx="473" dy="334" grid="1" gridSize="10" guides="1" tooltips="1" connect="1" arrows="1" fold="1" page="1" pageScale="1" pageWidth="1850" pageHeight="1100" math="0" shadow="0">
            <root>
                <mxCell id="0"/>
                <mxCell id="1" parent="0"/>
                <mxCell id="2" value="&lt;div style=&quot;color: rgb(238, 255, 255); background-color: rgb(38, 50, 56); font-family: &amp;quot;Droid Sans Mono&amp;quot;, &amp;quot;monospace&amp;quot;, monospace; font-weight: normal; font-size: 14px; line-height: 19px;&quot;&gt;&lt;span style=&quot;color: #ffcb6b;&quot;&gt;TInvWL_Public_Wishlist_Ajax&lt;/span&gt;&lt;/div&gt;" style="swimlane;fontStyle=1;align=center;verticalAlign=middle;childLayout=stackLayout;horizontal=1;startSize=29;horizontalStack=0;resizeParent=1;resizeParentMax=0;resizeLast=0;collapsible=0;marginBottom=0;html=1;" vertex="1" parent="1">
                    <mxGeometry x="160" y="120" width="280" height="79" as="geometry"/>
                </mxCell>
                <mxCell id="3" value="&lt;div style=&quot;color: rgb(238, 255, 255); background-color: rgb(38, 50, 56); font-family: &amp;quot;Droid Sans Mono&amp;quot;, &amp;quot;monospace&amp;quot;, monospace; font-size: 14px; line-height: 19px;&quot;&gt;&lt;span style=&quot;color: #82aaff;&quot;&gt;wishlist_ajax_actions&lt;/span&gt;&lt;span style=&quot;color: rgb(137, 221, 255);&quot;&gt;(&lt;/span&gt;&lt;span style=&quot;&quot;&gt; &lt;/span&gt;&lt;span style=&quot;color: rgb(137, 221, 255);&quot;&gt;$&lt;/span&gt;&lt;span style=&quot;&quot;&gt;wishlist&lt;/span&gt;&lt;span style=&quot;color: rgb(137, 221, 255);&quot;&gt;,&lt;/span&gt;&lt;span style=&quot;&quot;&gt; &lt;/span&gt;&lt;span style=&quot;color: rgb(137, 221, 255);&quot;&gt;$&lt;/span&gt;&lt;span style=&quot;&quot;&gt;post&lt;/span&gt;&lt;span style=&quot;color: rgb(137, 221, 255);&quot;&gt;,&lt;/span&gt;&lt;span style=&quot;&quot;&gt; &lt;/span&gt;&lt;span style=&quot;color: rgb(137, 221, 255);&quot;&gt;$&lt;/span&gt;&lt;span style=&quot;&quot;&gt;guest_wishlist &lt;/span&gt;&lt;span style=&quot;color: rgb(199, 146, 234);&quot;&gt;=&lt;/span&gt;&lt;span style=&quot;&quot;&gt; &lt;/span&gt;&lt;span style=&quot;color: rgb(247, 140, 108);&quot;&gt;false&lt;/span&gt;&lt;span style=&quot;&quot;&gt; &lt;/span&gt;&lt;span style=&quot;color: rgb(137, 221, 255);&quot;&gt;)&lt;/span&gt;&lt;/div&gt;" style="text;html=1;strokeColor=none;fillColor=none;align=center;verticalAlign=middle;spacingLeft=4;spacingRight=4;overflow=hidden;rotatable=0;points=[[0,0.5],[1,0.5]];portConstraint=eastwest;" vertex="1" parent="2">
                    <mxGeometry y="29" width="280" height="25" as="geometry"/>
                </mxCell>
                <mxCell id="4" value="stereotype property 1" style="text;html=1;strokeColor=none;fillColor=none;align=left;verticalAlign=middle;spacingLeft=4;spacingRight=4;overflow=hidden;rotatable=0;points=[[0,0.5],[1,0.5]];portConstraint=eastwest;" vertex="1" parent="2">
                    <mxGeometry y="54" width="280" height="25" as="geometry"/>
                </mxCell>
            </root>
        </mxGraphModel>
    </diagram>
</mxfile>